<svg width="400" height="400" viewBox="0 0 400 400" fill="none" xmlns="http://www.w3.org/2000/svg">
	<rect x="59" y="164" width="57" height="48" fill="#C4C4C4" />
	<rect x="138" y="164" width="77" height="72" fill="#C4C4C4" />
	<rect x="92" y="46" width="72" height="58" fill="#C4C4C4" />
	<rect x="42" y="251" width="50" height="72" fill="#C4C4C4" />
	<rect x="139" y="279" width="61" height="65" fill="#C4C4C4" />
	<rect x="170" y="26" width="134" height="113" fill="#C4C4C4" />
	<rect x="59" y="164" width="57" height="48" fill="#C4C4C4" />
	<rect x="138" y="164" width="77" height="72" fill="#C4C4C4" />
	<rect x="92" y="46" width="72" height="58" fill="#C4C4C4" />
	<rect x="139" y="279" width="61" height="65" fill="#C4C4C4" />
	<rect x="170" y="26" width="134" height="113" fill="#C4C4C4" />
	<rect x="228" y="179" width="62" height="100" fill="#C4C4C4" />
	<rect x="250" y="323" width="95" height="34" fill="#C4C4C4" />
	<rect x="329" y="28" width="42" height="259" fill="#C4C4C4" />
	<rect x="25" y="20" width="17" height="8" fill="#C4C4C4" />
	<rect x="50" y="349" width="17" height="8" fill="#C4C4C4" />
	<rect x="100" y="362" width="17" height="8" fill="#C4C4C4" />
	<rect x="83" y="135" width="17" height="8" fill="#C4C4C4" />
	<rect x="17" y="135" width="17" height="8" fill="#C4C4C4" />
	<rect x="67" y="28" width="17" height="8" fill="#C4C4C4" />
	<rect width="17" height="31" transform="matrix(1 0 0 -1 25 75)" fill="#C4C4C4" />
	<rect width="17" height="31" transform="matrix(1 0 0 -1 50 75)" fill="#C4C4C4" />
	<rect x="160" y="366" width="17" height="8" fill="#C4C4C4" />
</svg>